HIERARCHY
ROOT reference
{
  OFFSET 0 0 0
  CHANNELS 6 Xposition Yposition Zposition Zrotation Xrotation Yrotation
  JOINT Hips
  {
    OFFSET 352.076 86.5813 226.294
    CHANNELS 3 Zrotation Xrotation Yrotation
    JOINT RightUpLeg
    {
      OFFSET -9.24446 -1.53332 -0.0100408
      CHANNELS 3 Zrotation Xrotation Yrotation
      JOINT RightLeg
      {
        OFFSET 0.0379954 -41.8775 0.0555708
        CHANNELS 3 Zrotation Xrotation Yrotation
        JOINT RightFoot
        {
          OFFSET 0.0737403 -43.7597 -0.208372
          CHANNELS 3 Zrotation Xrotation Yrotation
          End Site
          {
            OFFSET 0 -7.69 17.5
          }
        }
      }
    }
    JOINT LeftUpLeg
    {
      OFFSET 9.31004 -1.65148 -0.0333589
      CHANNELS 3 Zrotation Xrotation Yrotation
      JOINT LeftLeg
      {
        OFFSET 0.0881386 -41.8624 -0.0616493
        CHANNELS 3 Zrotation Xrotation Yrotation
        JOINT LeftFoot
        {
          OFFSET 0.763074 -39.9619 0.249975
          CHANNELS 3 Zrotation Xrotation Yrotation
          End Site
          {
            OFFSET 0 -7.69 17.5
          }
        }
      }
    }
    JOINT Spine
    {
      OFFSET 0.105097 14.2958 0.096313
      CHANNELS 3 Zrotation Xrotation Yrotation
      JOINT Spine1
      {
        OFFSET 0.0609256 9.72986 0.0283835
        CHANNELS 3 Zrotation Xrotation Yrotation
        JOINT Spine2
        {
          OFFSET 0.0349843 10.1145 -0.0203086
          CHANNELS 3 Zrotation Xrotation Yrotation
          JOINT Spine3
          {
            OFFSET 0.0323734 9.71864 0.0196425
            CHANNELS 3 Zrotation Xrotation Yrotation
            JOINT Neck
            {
              OFFSET 0.219168 10.3708 0.0833364
              CHANNELS 3 Zrotation Xrotation Yrotation
              JOINT Head
              {
                OFFSET 0.200748 9.48753 0.0966912
                CHANNELS 3 Zrotation Xrotation Yrotation
                End Site
                {
                  OFFSET 0 15.95 0
                }
              }
            }
            JOINT RightShoulder
            {
              OFFSET -3.14734 6.94135 0.063802
              CHANNELS 3 Zrotation Xrotation Yrotation
              JOINT RightArm
              {
                OFFSET -12.765 0.137663 0.228635
                CHANNELS 3 Zrotation Xrotation Yrotation
                JOINT RightForeArm
                {
                  OFFSET -26.5344 -0.389186 -0.00603507
                  CHANNELS 3 Zrotation Xrotation Yrotation
                  JOINT RightHand
                  {
                    OFFSET -26.1352 -0.0585664 0.0704552
                    CHANNELS 3 Zrotation Xrotation Yrotation
                    JOINT RightHandThumb1
                    {
                      OFFSET -2.48905 0.190105 3.12053
                      CHANNELS 3 Zrotation Xrotation Yrotation
                      JOINT RightHandThumb2
                      {
                        OFFSET -3.68274 0 0
                        CHANNELS 3 Zrotation Xrotation Yrotation
                        JOINT RightHandThumb3
                        {
                          OFFSET -2.55832 0 0
                          CHANNELS 3 Zrotation Xrotation Yrotation
                          End Site
                          {
                            OFFSET -2.194 0 0
                          }
                        }
                      }
                    }
                    JOINT RightInHandIndex
                    {
                      OFFSET -3.22368 0.508421 1.97842
                      CHANNELS 3 Zrotation Xrotation Yrotation
                      JOINT RightHandIndex1
                      {
                        OFFSET -5.21684 -0.091368 0.999158
                        CHANNELS 3 Zrotation Xrotation Yrotation
                        JOINT RightHandIndex2
                        {
                          OFFSET -3.61937 0 0
                          CHANNELS 3 Zrotation Xrotation Yrotation
                          JOINT RightHandIndex3
                          {
                            OFFSET -2.0521 0 0
                            CHANNELS 3 Zrotation Xrotation Yrotation
                            End Site
                            {
                              OFFSET -1.805 0 0
                            }
                          }
                        }
                      }
                    }
                    JOINT RightInHandMiddle
                    {
                      OFFSET -3.38211 0.517263 0.756737
                      CHANNELS 3 Zrotation Xrotation Yrotation
                      JOINT RightHandMiddle1
                      {
                        OFFSET -5.17411 -0.084 0.313895
                        CHANNELS 3 Zrotation Xrotation Yrotation
                        JOINT RightHandMiddle2
                        {
                          OFFSET -3.94947 0 0
                          CHANNELS 3 Zrotation Xrotation Yrotation
                          JOINT RightHandMiddle3
                          {
                            OFFSET -2.47579 0 0
                            CHANNELS 3 Zrotation Xrotation Yrotation
                            End Site
                            {
                              OFFSET -1.975 0 0
                            }
                          }
                        }
                      }
                    }
                    JOINT RightInHandRing
                    {
                      OFFSET -3.36516 0.537895 -0.128947
                      CHANNELS 3 Zrotation Xrotation Yrotation
                      JOINT RightHandRing1
                      {
                        OFFSET -4.63474 -0.022105 -0.478947
                        CHANNELS 3 Zrotation Xrotation Yrotation
                        JOINT RightHandRing2
                        {
                          OFFSET -3.44238 0 0
                          CHANNELS 3 Zrotation Xrotation Yrotation
                          JOINT RightHandRing3
                          {
                            OFFSET -2.3881 0 0
                            CHANNELS 3 Zrotation Xrotation Yrotation
                            End Site
                            {
                              OFFSET -1.857 0 0
                            }
                          }
                        }
                      }
                    }
                    JOINT RightInHandPinky
                    {
                      OFFSET -3.16105 0.469368 -1.20179
                      CHANNELS 3 Zrotation Xrotation Yrotation
                      JOINT RightHandPinky1
                      {
                        OFFSET -4.14105 -0.022105 -1.09053
                        CHANNELS 3 Zrotation Xrotation Yrotation
                        JOINT RightHandPinky2
                        {
                          OFFSET -2.75653 0 0
                          CHANNELS 3 Zrotation Xrotation Yrotation
                          JOINT RightHandPinky3
                          {
                            OFFSET -1.74189 0 0
                            CHANNELS 3 Zrotation Xrotation Yrotation
                            End Site
                            {
                              OFFSET -1.645 0 0
                            }
                          }
                        }
                      }
                    }
                  }
                }
              }
            }
            JOINT LeftShoulder
            {
              OFFSET 3.26179 6.89719 -0.0373062
              CHANNELS 3 Zrotation Xrotation Yrotation
              JOINT LeftArm
              {
                OFFSET 12.4839 0.0196156 -0.0323257
                CHANNELS 3 Zrotation Xrotation Yrotation
                JOINT LeftForeArm
                {
                  OFFSET 26.5039 -0.120667 0.247609
                  CHANNELS 3 Zrotation Xrotation Yrotation
                  JOINT LeftHand
                  {
                    OFFSET 25.9984 -0.032285 0.00286418
                    CHANNELS 3 Zrotation Xrotation Yrotation
                    JOINT LeftHandThumb1
                    {
                      OFFSET 2.48905 0.190105 3.12053
                      CHANNELS 3 Zrotation Xrotation Yrotation
                      JOINT LeftHandThumb2
                      {
                        OFFSET 3.68274 0 0
                        CHANNELS 3 Zrotation Xrotation Yrotation
                        JOINT LeftHandThumb3
                        {
                          OFFSET 2.55832 0 0
                          CHANNELS 3 Zrotation Xrotation Yrotation
                          End Site
                          {
                            OFFSET 2.194 0 0
                          }
                        }
                      }
                    }
                    JOINT LeftInHandIndex
                    {
                      OFFSET 3.22368 0.508421 1.97842
                      CHANNELS 3 Zrotation Xrotation Yrotation
                      JOINT LeftHandIndex1
                      {
                        OFFSET 5.21684 -0.091368 0.999158
                        CHANNELS 3 Zrotation Xrotation Yrotation
                        JOINT LeftHandIndex2
                        {
                          OFFSET 3.61937 0 0
                          CHANNELS 3 Zrotation Xrotation Yrotation
                          JOINT LeftHandIndex3
                          {
                            OFFSET 2.0521 0 0
                            CHANNELS 3 Zrotation Xrotation Yrotation
                            End Site
                            {
                              OFFSET 1.805 0 0
                            }
                          }
                        }
                      }
                    }
                    JOINT LeftInHandMiddle
                    {
                      OFFSET 3.38211 0.517263 0.756737
                      CHANNELS 3 Zrotation Xrotation Yrotation
                      JOINT LeftHandMiddle1
                      {
                        OFFSET 5.17411 -0.084 0.313895
                        CHANNELS 3 Zrotation Xrotation Yrotation
                        JOINT LeftHandMiddle2
                        {
                          OFFSET 3.94947 0 0
                          CHANNELS 3 Zrotation Xrotation Yrotation
                          JOINT LeftHandMiddle3
                          {
                            OFFSET 2.47579 0 0
                            CHANNELS 3 Zrotation Xrotation Yrotation
                            End Site
                            {
                              OFFSET 1.975 0 0
                            }
                          }
                        }
                      }
                    }
                    JOINT LeftInHandRing
                    {
                      OFFSET 3.36516 0.537895 -0.128947
                      CHANNELS 3 Zrotation Xrotation Yrotation
                      JOINT LeftHandRing1
                      {
                        OFFSET 4.63474 -0.022105 -0.478947
                        CHANNELS 3 Zrotation Xrotation Yrotation
                        JOINT LeftHandRing2
                        {
                          OFFSET 3.44238 0 0
                          CHANNELS 3 Zrotation Xrotation Yrotation
                          JOINT LeftHandRing3
                          {
                            OFFSET 2.3881 0 0
                            CHANNELS 3 Zrotation Xrotation Yrotation
                            End Site
                            {
                              OFFSET 1.857 0 0
                            }
                          }
                        }
                      }
                    }
                    JOINT LeftInHandPinky
                    {
                      OFFSET 3.16105 0.469368 -1.20179
                      CHANNELS 3 Zrotation Xrotation Yrotation
                      JOINT LeftHandPinky1
                      {
                        OFFSET 4.14105 -0.022105 -1.09053
                        CHANNELS 3 Zrotation Xrotation Yrotation
                        JOINT LeftHandPinky2
                        {
                          OFFSET 2.75653 0 0
                          CHANNELS 3 Zrotation Xrotation Yrotation
                          JOINT LeftHandPinky3
                          {
                            OFFSET 1.74189 0 0
                            CHANNELS 3 Zrotation Xrotation Yrotation
                            End Site
                            {
                              OFFSET 1.645 0 0
                            }
                          }
                        }
                      }
                    }
                  }
                }
              }
            }
          }
        }
      }
    }
  }
}
MOTION
Frames: 2
Frame Time: 0.00833333
1.500000000000000000e+02 0.000000000000000000e+00 0.000000000000000000e+00 0.000000000000000000e+00 0.000000000000000000e+00 -0.000000000000000000e+00 2.495543922665984654e-02 1.591170149938480119e-02 1.747757623773244784e-01 -1.347694264517727003e-01 2.844928214504654357e-02 -1.533333700283444068e-01 -1.446086443400475263e-02 1.848597378921345430e-02 7.939568028030296112e-03 -2.627856389597350937e-03 -4.960388377246136016e-02 -8.163907844199355668e-02 -1.023878820602467793e-01 -7.592093297139204666e-02 -1.450533455434095120e-01 4.024735397975062051e-02 -4.535723449011180158e-02 -4.988947316908427104e-02 -4.139553933043860212e-02 2.584042030338215210e-02 -2.297292207631644254e-02 -3.219618885066146546e-02 1.879298870730014559e-02 3.994009934743722456e-02 -6.864467470343552265e-03 7.589319063902340637e-03 8.677228825070196563e-03 -1.119029637545005881e-02 1.278777358672149485e-02 1.295323116540094202e-02 3.774871831991168190e-03 6.877299018963566307e-04 -1.048696940292604546e-02 4.238472845950427836e-03 1.165083163216062328e-03 -1.182173623668268149e-02 6.198566615094392579e-02 -5.886700287447224796e-03 -1.879223599404203915e-01 -1.212253250442438951e-02 -9.000567841425372029e-02 1.002397966272809554e-01 -2.237696598249519497e-01 2.457512623044624811e-01 1.524496192012564921e-01 -5.360774360396506344e-01 -2.691550557259763110e-01 -7.476650161719177179e-01 3.476541182288814258e-01 -2.804367972446437651e-01 9.243179151736579113e-01 0.000000000000000000e+00 0.000000000000000000e+00 0.000000000000000000e+00 -4.659440175707303540e-15 4.560707762413956493e-15 0.000000000000000000e+00 -1.060437739595139173e-15 -1.310867600932982615e-15 0.000000000000000000e+00 2.282401310403868317e-15 -4.652619387567173843e-15 -1.847378525014859303e-15 0.000000000000000000e+00 0.000000000000000000e+00 0.000000000000000000e+00 0.000000000000000000e+00 1.528675079998379523e-14 7.553226960449148631e-14 0.000000000000000000e+00 -2.776287164956553598e-15 -2.865775601551535533e-14 2.282401310403868317e-15 -4.652619387567173843e-15 -1.847378525014859303e-15 0.000000000000000000e+00 7.693777631722933540e-15 2.922219399955593770e-14 0.000000000000000000e+00 2.521932407165903977e-14 7.493074492445844062e-14 0.000000000000000000e+00 -1.609122103483849789e-15 -3.341527102017288099e-14 2.282401310403868317e-15 -4.652619387567173843e-15 -1.847378525014859303e-15 0.000000000000000000e+00 0.000000000000000000e+00 0.000000000000000000e+00 0.000000000000000000e+00 1.243621935829747811e-14 6.275636730362195375e-14 0.000000000000000000e+00 -3.635465349436369075e-15 -1.932413690325431613e-14 2.282401310403868317e-15 -4.652619387567173843e-15 -1.847378525014859303e-15 0.000000000000000000e+00 0.000000000000000000e+00 0.000000000000000000e+00 0.000000000000000000e+00 6.914584969517435964e-15 4.533463253081784519e-14 0.000000000000000000e+00 -7.428203439949386349e-15 -2.493951461720697920e-14 7.945009616879489603e-03 -6.495641054510995459e-03 9.646610175590435154e-02 7.835929173821518656e-01 2.531085994599880928e-01 -9.758271242339953133e-01 7.076749918543961959e-01 -1.168443427504602949e+00 1.044321198916424498e+00 4.439089492733427206e-02 -7.201482587703987581e-02 -5.275524894192756484e-03 0.000000000000000000e+00 0.000000000000000000e+00 0.000000000000000000e+00 -2.645765277164284918e-15 -5.185438189729921278e-15 0.000000000000000000e+00 7.323025798624995093e-15 -9.045577283371381129e-15 0.000000000000000000e+00 3.568520668207482143e-15 -3.831307115864202305e-16 -3.845242117745956234e-16 0.000000000000000000e+00 0.000000000000000000e+00 0.000000000000000000e+00 0.000000000000000000e+00 -9.268266012762283783e-16 9.915050673306293090e-16 0.000000000000000000e+00 4.684214270112551779e-16 1.674464020975995537e-15 3.568520668207482143e-15 -3.831307115864202305e-16 -3.845242117745956234e-16 0.000000000000000000e+00 -1.766527565035219658e-15 -3.904068006141740197e-16 0.000000000000000000e+00 2.506778365395406056e-16 6.013114738461359480e-15 0.000000000000000000e+00 -3.357724416765364262e-15 1.377288177272908910e-14 3.568520668207482143e-15 -3.831307115864202305e-16 -3.845242117745956234e-16 0.000000000000000000e+00 0.000000000000000000e+00 0.000000000000000000e+00 0.000000000000000000e+00 2.946542212426154284e-15 4.341695319762497234e-15 0.000000000000000000e+00 -2.380595996770254359e-15 9.847292297011995555e-15 3.568520668207482143e-15 -3.831307115864202305e-16 -3.845242117745956234e-16 0.000000000000000000e+00 0.000000000000000000e+00 0.000000000000000000e+00 0.000000000000000000e+00 3.782928744364004905e-15 9.878778312383668132e-15 0.000000000000000000e+00 -3.370653163122456492e-15 1.821955236009691509e-14
1.500000000000000000e+02 0.000000000000000000e+00 0.000000000000000000e+00 0.000000000000000000e+00 0.000000000000000000e+00 -0.000000000000000000e+00 6.503506387122716739e-03 1.474823286413834162e-03 2.111726940145290665e-02 -2.733512787573284114e-02 3.486555190142415824e-03 -2.891688091719366027e-02 2.650368110718619771e-03 9.608295879493292634e-04 -1.285667281993432831e-03 -1.393126100964927564e-03 -3.646143974280501021e-03 -5.997697967432654570e-03 -2.381284404245860922e-02 -1.797491458320413932e-02 -3.145756261947265514e-02 7.821328263120012544e-03 6.285766314247030230e-03 3.872094124098944198e-03 -8.535712408864087539e-03 -5.673992773875380542e-03 -6.316946801193179875e-03 -3.920418483772214837e-04 -7.870609827035636137e-04 -3.211623062828653126e-03 -1.697547529593921710e-04 1.044123695071780248e-05 -8.642671784195091449e-04 -2.818675272829799638e-04 1.678836598731961427e-04 -1.483932101748684654e-03 2.664422005278802518e-04 6.722666608056607912e-05 -7.483692657670955361e-04 3.001948931485432892e-04 1.377291016676949423e-04 -8.420083996412125850e-04 4.374247768376095767e-03 -1.173351628279016264e-03 -1.345813922099120194e-02 -2.173395376945539293e-03 -3.053833054071424143e-03 6.301463930716324525e-03 -2.121900088634007947e-02 1.929111962714841894e-02 1.904938959511802768e-02 -3.011187144664989601e-02 -1.103321845540477034e-02 -3.693155811616949391e-02 2.800043488627673716e-01 -3.268166944042404376e-01 9.946798492884578735e-01 0.000000000000000000e+00 0.000000000000000000e+00 0.000000000000000000e+00 -8.711561361541495397e-15 4.578420291039193984e-15 0.000000000000000000e+00 -1.596362623464023852e-14 4.375227642824430023e-15 0.000000000000000000e+00 3.543475034988672599e-15 -3.166796477806034987e-15 -2.212507275840139853e-15 0.000000000000000000e+00 0.000000000000000000e+00 0.000000000000000000e+00 0.000000000000000000e+00 -1.576013551109275987e-15 -2.808353366518906071e-15 0.000000000000000000e+00 -6.236545297676903241e-15 -1.660606984210957074e-14 3.543475034988672599e-15 -3.166796477806034987e-15 -2.212507275840139853e-15 0.000000000000000000e+00 5.104310446141344099e-16 8.605084046992951227e-15 0.000000000000000000e+00 3.071648981669706851e-15 1.118078225164528361e-14 0.000000000000000000e+00 -1.885400431535355395e-15 -1.406545807784592609e-14 3.543475034988672599e-15 -3.166796477806034987e-15 -2.212507275840139853e-15 0.000000000000000000e+00 0.000000000000000000e+00 0.000000000000000000e+00 0.000000000000000000e+00 4.584267986154974613e-15 2.538075997823698765e-14 0.000000000000000000e+00 -1.224998932830129396e-15 -1.043514692007556551e-14 3.543475034988672599e-15 -3.166796477806034987e-15 -2.212507275840139853e-15 0.000000000000000000e+00 0.000000000000000000e+00 0.000000000000000000e+00 0.000000000000000000e+00 8.042670365425088077e-15 4.490001668280792205e-14 0.000000000000000000e+00 4.504566168081732703e-16 -4.197562319803526196e-15 8.592101405264084436e-04 1.056306361140622594e-05 3.771232604470829523e-03 8.374850380699150332e-01 2.896287825709722985e-01 -1.054088556169130220e+00 7.994980901663149009e-01 -6.952508792120836167e-01 1.015151618189225280e+00 -4.263160860307268346e-03 1.607420705605874453e-02 -1.482967935216174867e-03 0.000000000000000000e+00 0.000000000000000000e+00 0.000000000000000000e+00 3.179918900998533438e-15 -1.503399017673247377e-15 0.000000000000000000e+00 -8.172766886822621553e-15 -3.661000023596409102e-15 0.000000000000000000e+00 1.709605043223290285e-15 -9.238828393048300267e-17 3.516220271837438508e-17 0.000000000000000000e+00 0.000000000000000000e+00 0.000000000000000000e+00 0.000000000000000000e+00 -9.056898606523724687e-17 -7.592316609705748669e-15 0.000000000000000000e+00 3.730634503834172756e-16 -2.003830017882153075e-15 1.709605043223290285e-15 -9.238828393048300267e-17 3.516220271837438508e-17 0.000000000000000000e+00 4.783722537528881277e-16 -4.442445113912036101e-16 0.000000000000000000e+00 8.274558559471626056e-16 -1.330782091504836309e-15 0.000000000000000000e+00 6.396933167177796683e-16 -3.658261419317836623e-15 1.709605043223290285e-15 -9.238828393048300267e-17 3.516220271837438508e-17 0.000000000000000000e+00 0.000000000000000000e+00 0.000000000000000000e+00 0.000000000000000000e+00 -3.796389036145038627e-16 -1.699047682251247546e-16 0.000000000000000000e+00 1.181298444919719864e-16 -6.927414817684501756e-15 1.709605043223290285e-15 -9.238828393048300267e-17 3.516220271837438508e-17 0.000000000000000000e+00 0.000000000000000000e+00 0.000000000000000000e+00 0.000000000000000000e+00 9.753101852539164598e-17 -1.826670059876924040e-15 0.000000000000000000e+00 1.446385882828674136e-15 -8.693046060417838165e-16
